<svg width="175" height="30" viewBox="0 0 175 30" fill="none" xmlns="http://www.w3.org/2000/svg">
<g filter="url(#filter0_dd)">
<path d="M20.4537 0.568637C20.1674 0.254914 19.816 0.0980527 19.3996 0.0980527H2.14217C1.72571 0.0980527 1.37431 0.254914 1.08799 0.568637C0.801669 0.856216 0.658508 1.22223 0.658508 1.66667V26.3331C0.658508 26.7775 0.801669 27.1566 1.08799 27.4703C1.37431 27.7579 1.72571 27.9017 2.14217 27.9017H4.91429C5.87737 27.9017 6.35891 27.3788 6.35891 26.3331V5.98035H15.1828V26.3331C15.1828 27.3788 15.6644 27.9017 16.6274 27.9017H19.3996C19.816 27.9017 20.1674 27.7579 20.4537 27.4703C20.7401 27.1566 20.8832 26.7775 20.8832 26.3331V1.66667C20.8832 1.22223 20.7401 0.856216 20.4537 0.568637Z" fill="white"/>
<path d="M34.2448 6.098V10.7254H40.2185C40.6349 10.7254 40.9863 10.8692 41.2726 11.1568C41.559 11.4705 41.7021 11.8365 41.7021 12.2548V14.8822C41.7021 15.3005 41.559 15.6665 41.2726 15.9803C40.9863 16.2678 40.6349 16.4116 40.2185 16.4116H34.2448V22.0586H42.522C42.9385 22.0586 43.2899 22.2155 43.5762 22.5292C43.8626 22.8168 44.0057 23.1828 44.0057 23.6272V26.3331C44.0057 26.7775 43.8626 27.1566 43.5762 27.4703C43.2899 27.7579 42.9385 27.9017 42.522 27.9017H30.7699C30.1451 27.9017 29.6116 27.6664 29.1691 27.1958C28.7526 26.7253 28.5444 26.1762 28.5444 25.5488V2.60783C28.5444 1.95425 28.7656 1.40523 29.2081 0.96079C29.5985 0.490206 30.1191 0.254914 30.7699 0.254914H42.522C42.9385 0.254914 43.2899 0.398704 43.5762 0.686284C43.8626 1.00001 44.0057 1.37909 44.0057 1.82353V4.52939C44.0057 4.97382 43.8626 5.33983 43.5762 5.62741C43.2899 5.94114 42.9385 6.098 42.522 6.098H34.2448Z" fill="white"/>
<path d="M51.7742 27.9017C51.3578 27.9017 51.0064 27.7579 50.72 27.4703C50.4337 27.1566 50.2906 26.7906 50.2906 26.3723V1.82353C50.2906 1.37909 50.4337 1.00001 50.72 0.686284C51.0064 0.398704 51.3578 0.254914 51.7742 0.254914H54.5073C54.9238 0.254914 55.2752 0.398704 55.5615 0.686284C55.8478 1.00001 55.991 1.37909 55.991 1.82353V11.3136H56.03L63.7216 1.07844C64.1121 0.529422 64.6587 0.254914 65.3615 0.254914H68.485C69.4481 0.254914 69.9296 0.73857 69.9296 1.70588C69.9296 1.99346 69.8255 2.30718 69.6173 2.64705L60.9886 13.9411L69.6563 25.588C69.8645 25.8756 69.9687 26.1762 69.9687 26.49C69.9687 27.4573 69.4871 27.9409 68.524 27.9409L65.3224 27.9017C64.6457 27.9017 64.1121 27.6272 63.7216 27.0782L56.1862 16.9999H55.991V26.3723C55.991 26.7906 55.8478 27.1566 55.5615 27.4703C55.2752 27.7579 54.9238 27.9017 54.5073 27.9017H51.7742Z" fill="white"/>
<path d="M97.3356 25.7449C97.3617 25.8494 97.3747 26.0325 97.3747 26.2939C97.3747 26.7383 97.2315 27.1174 96.9452 27.4311C96.6329 27.7449 96.2554 27.9017 95.8129 27.9017H93.3532C92.4161 27.9017 91.8175 27.4311 91.5572 26.49L90.1906 21.8233H83.2018L81.7962 26.49C81.5359 27.4311 80.9502 27.9017 80.0392 27.9017H77.6185C77.176 27.9017 76.7986 27.7449 76.4862 27.4311C76.1999 27.1174 76.0567 26.7383 76.0567 26.2939C76.0567 26.0325 76.0698 25.8494 76.0958 25.7449L83.5922 1.43138C83.8525 0.51635 84.4512 0.0588379 85.3882 0.0588379H88.0432C88.9803 0.0588379 89.5789 0.51635 89.8392 1.43138L97.3356 25.7449ZM86.6767 9.82345L84.8416 16.1371H88.5117L86.6767 9.82345Z" fill="white"/>
<path d="M122.03 9.4313C122.03 11.9149 121.184 14.0587 119.492 15.8626C117.774 17.7188 115.692 18.6469 113.245 18.6469H110.551V26.3331C110.551 27.3788 110.069 27.9017 109.106 27.9017H106.334C105.371 27.9017 104.889 27.3788 104.889 26.3331V2.60783C104.889 1.98039 105.098 1.43137 105.514 0.96079C105.957 0.490206 106.49 0.254914 107.115 0.254914H113.245C115.666 0.254914 117.748 1.18301 119.492 3.0392C121.184 4.84311 122.03 6.97381 122.03 9.4313ZM116.329 9.4313C116.329 8.49013 116.004 7.69275 115.353 7.03917C114.754 6.35943 113.987 6.01957 113.05 6.01957H110.551V12.8822H113.05C113.935 12.8822 114.702 12.5424 115.353 11.8626C116.004 11.1829 116.329 10.3725 116.329 9.4313Z" fill="white"/>
<path d="M147.222 0.0980527C147.639 0.0980527 147.99 0.254914 148.277 0.568637C148.563 0.856216 148.706 1.22223 148.706 1.66667V26.3331C148.706 26.7775 148.563 27.1566 148.277 27.4703C147.99 27.7579 147.639 27.9017 147.222 27.9017H144.45C143.487 27.9017 143.006 27.3788 143.006 26.3331V16.5685H134.182V26.3331C134.182 27.3788 133.7 27.9017 132.737 27.9017H129.965C129.549 27.9017 129.197 27.7579 128.911 27.4703C128.624 27.1566 128.481 26.7775 128.481 26.3331V1.66667C128.481 1.22223 128.624 0.856216 128.911 0.568637C129.197 0.254914 129.549 0.0980527 129.965 0.0980527H132.737C133.154 0.0980527 133.492 0.254914 133.752 0.568637C134.039 0.856216 134.182 1.22223 134.182 1.66667V10.7646H143.006V1.66667C143.006 1.22223 143.149 0.856216 143.435 0.568637C143.695 0.254914 144.034 0.0980527 144.45 0.0980527H147.222Z" fill="white"/>
<path d="M161.638 8.99993C161.638 8.13719 161.898 7.41825 162.419 6.84309C162.966 6.29408 163.668 6.01957 164.527 6.01957H167.299V11.9019H164.527C163.694 11.9019 163.005 11.6274 162.458 11.0783C161.911 10.5293 161.638 9.83653 161.638 8.99993ZM155.391 26.3331C155.391 26.7775 155.534 27.1566 155.821 27.4703C156.107 27.7579 156.471 27.9017 156.914 27.9017H159.725C160.376 27.9017 160.883 27.6141 161.248 27.039L166.753 17.6665H167.299V26.3331C167.299 26.7775 167.443 27.1566 167.729 27.4703C168.015 27.7579 168.367 27.9017 168.783 27.9017H171.516C171.933 27.9017 172.284 27.7579 172.57 27.4703C172.857 27.1566 173 26.7775 173 26.3331V2.60783C173 1.95425 172.779 1.40523 172.336 0.96079C171.946 0.490206 171.425 0.254914 170.774 0.254914H164.332C161.963 0.254914 159.959 1.11765 158.319 2.84312C156.706 4.51631 155.899 6.55551 155.899 8.96072C155.899 10.6862 156.354 12.2679 157.265 13.7058C158.15 15.1437 159.348 16.2025 160.857 16.8822L155.625 25.4704C155.469 25.7318 155.391 26.0194 155.391 26.3331Z" fill="white"/>
</g>
<defs>
<filter id="filter0_dd" x="0.658508" y="0.0588379" width="174.341" height="29.8821" filterUnits="userSpaceOnUse" color-interpolation-filters="sRGB">
<feFlood flood-opacity="0" result="BackgroundImageFix"/>
<feColorMatrix in="SourceAlpha" type="matrix" values="0 0 0 0 0 0 0 0 0 0 0 0 0 0 0 0 0 0 127 0" result="hardAlpha"/>
<feOffset dx="2" dy="2"/>
<feColorMatrix type="matrix" values="0 0 0 0 1 0 0 0 0 1 0 0 0 0 1 0 0 0 1 0"/>
<feBlend mode="normal" in2="BackgroundImageFix" result="effect1_dropShadow"/>
<feColorMatrix in="SourceAlpha" type="matrix" values="0 0 0 0 0 0 0 0 0 0 0 0 0 0 0 0 0 0 127 0" result="hardAlpha"/>
<feOffset dx="1" dy="1"/>
<feColorMatrix type="matrix" values="0 0 0 0 1 0 0 0 0 0.827451 0 0 0 0 0.141176 0 0 0 1 0"/>
<feBlend mode="normal" in2="effect1_dropShadow" result="effect2_dropShadow"/>
<feBlend mode="normal" in="SourceGraphic" in2="effect2_dropShadow" result="shape"/>
</filter>
</defs>
</svg>
